<?xml version="1.0" encoding="utf-8"?>
<!-- Generator: Adobe Illustrator 15.1.0, SVG Export Plug-In . SVG Version: 6.00 Build 0)  -->
<!DOCTYPE svg PUBLIC "-//W3C//DTD SVG 1.1//EN" "http://www.w3.org/Graphics/SVG/1.1/DTD/svg11.dtd">
<svg version="1.1" id="Layer_2" xmlns="http://www.w3.org/2000/svg" xmlns:xlink="http://www.w3.org/1999/xlink" x="0px" y="0px"
	 width="841.89px" height="595.28px" viewBox="0 0 841.89 595.28" enable-background="new 0 0 841.89 595.28" xml:space="preserve">
<path fill="#FFFFFF" d="M763.921,313.311c-1.75,4-8.019,17.604-20,34.5c-9.75,13.75-32.75,24-37.5,23.5s-3.229-10.613-2.751-14.292
	c1.817-14.005,2.945-28.785,4.877-42.762c1.721-12.426,3.562-25.357,7.821-37.214c3.316-9.238,9.137-16.876,8.646-27.283
	c-0.578-12.172-14.328-14.442-23.267-8.579c-9.451,6.203-13.862,20.557-16.229,30.993c-2.729,12.032-3.674,24.457-5.45,36.65
	c-1.66,11.396-3.226,24.148-9.072,34.303c-5.613,9.748-17.665,14.645-28.574,12.347c-12.788-2.693-15.919-13.448-15.746-25.125
	c0.229-15.635,4.07-31.372,9.249-46.052c2.651-7.515,6.247-14.504,9.339-21.82c2.393-5.652,4.545-12.633,2.578-18.739
	c-3.354-10.413-16.828-7.815-23.96-3.312c-9.801,6.188-14.147,18.26-16.894,28.941c-4.226,16.423-2.506,35.625-11.452,50.436
	c-7.438,12.311-19.907,21.124-32.839,26.928c-11.443,5.135-24.62,8.897-37.181,6.222c-6.234-1.328-11.97-4.447-15.63-9.772
	c-1.221-1.774-2.16-3.706-3.01-5.681c-0.832-1.942-2.143-8.981,0.491-10.14c11.457-5.031,26.38-8.373,36.814-14.341
	c12.177-6.964,21.188-17.268,27.151-29.997c8.296-17.71,9.943-43.926-10.461-54.083c-21.761-10.829-52.495-1.372-68.842,15.1
	c-5.174,5.215-9.119,8.958-11.465,16.005c-1.293,3.878-2.812,9.128-7.955,6.905c-4.657-2.014-8.771-5.922-12.578-9.236
	c-20.169-17.549-44.086-29.478-71.807-29.624c-20.846-0.108-38.944,10.71-51.5,26.879c-8.352,10.758-15.574,24.168-18.168,37.679
	c-1.414,7.373-0.716,16.211-11.404,15.47c-7.459-0.518-13.461-5.9-18.323-11.115c-1.877-2.014-3.522-3.171-3.245-5.924
	c0.22-2.184,0.438-4.37,0.653-6.554c3.144-32.123,5.549-64.353,6.451-96.623c0.73-26.131,0.595-53-6.179-78.435
	c-5.769-21.655-17.708-42.607-39.791-50.65c-22.699-8.269-51.521-4.12-72.287,7.613c-41.915,23.684-57.53,82.924-43.256,126.963
	c10.32,31.836,33.764,60.992,60.13,81.353c-18.75,5.859-36.458,17.296-51.73,29.374c-24.082,19.045-42.644,43.178-54.574,71.482
	C74.28,401.047,66.504,431.268,72.46,458.87c2.331,10.794,7.287,21.255,15.964,28.365c8.701,7.131,20.916,14.605,31.533,17.837
	c17.663,5.374,36.209,2.763,53.597-4.339c22.904-9.359,41.16-29.499,54.725-49.599c26.018-38.557,40.651-85.104,51.438-129.981
	c12.314,5.489,22.822,9.597,29.527,21.813c6.526,11.89,13.638,20.739,24.957,29.208c22.146,16.569,53.162,14.208,72.535-4.411
	c19.653-18.888,22.216-51.256,19.157-76.803c-0.599-4.998-1.461-9.986-2.809-14.839c-1.382-4.974-4.786-10.305-3.854-15.596
	c1.703-9.693,15.132,2.981,18.085,4.926c8.551,5.629,17.563,11.26,22.146,20.78c4.031,8.369,4.544,18.493,5.479,27.565
	c1.518,14.69,2.285,29.351,9.663,42.54c5.89,10.529,15.225,18.461,26.475,22.774c14.021,5.379,30.199,5.918,44.808,2.863
	c12.396-2.594,23.404-8.313,34.796-13.575c4.972-2.296,10.904-5.254,16.527-3.754c5.718,1.526,9.072,6.834,14.337,9.195
	c10.753,4.818,25.051,4.433,36.167,1.116c5.157-1.537,9.887-6.357,15.363-6.133c4.281,0.177,6.901,6.409,6.096,11.235
	c-0.936,5.604-2,9-7,12c-27.297,16.378-52.313,37.852-70.085,64.651c-13.026,19.643-26.104,47.917-12.966,70.957
	c13.768,24.146,46.662,9.858,63.663-2.331c18.036-12.931,35.792-32.802,41.751-54.682c3.195-11.726,4.097-24.099,7.11-35.919
	c2.708-10.609,6.015-23.172,13.871-31.273c6.02-6.209,16.13-9.792,23.417-14.371c10.146-6.375,17.81-11.934,26.021-20.706
	c4.956-5.295,14.217-18.826,15.833-29.712c0.937-6.306,0.819-12.773,0.358-19.138c-0.155-2.18,0.4-9.101-2.544-10.573
	C768.602,308.964,765.671,309.311,763.921,313.311z M238.038,345.757c-8.492,23.042-21.307,44.754-33.619,65.921
	c-7.542,12.961-16.007,24.351-26.041,35.632c-7.697,8.656-15.878,17.325-27.225,20.88c-10.558,3.308-22.81,2.402-31.168-5.461
	c-28.203-26.536,5.392-68.863,21.43-91.713c9.313-13.268,19.354-26.455,31.939-36.813c11.948-9.831,26.561-16.374,41.12-21.315
	c6.47-2.196,13.134-4.137,19.918-5.049c3.053-0.409,5.39-0.763,7.199,2.055C247.836,319.623,241.504,336.344,238.038,345.757
	C227.732,373.721,248.338,317.793,238.038,345.757z M262.321,182.395c-0.836,10.392-1.714,20.778-2.626,31.161
	c-1.235,14.065-0.97,29.551-4.562,43.26c-3.354,12.813-14.537,3.641-21.122-1.429c-12.319-9.493-24.463-19.254-35.882-29.82
	c-10.972-10.15-22.788-21.44-29.148-35.208c-6.655-14.403-7.246-31.181-2.943-46.341c4.398-15.497,14.462-30.08,25.877-41.299
	c8.807-8.656,21.863-17.652,34.876-16.503c22.145,1.954,30.654,31.647,33.052,49.792
	C261.871,151.334,262.49,166.939,262.321,182.395L262.321,182.395z M396.985,327.36c-4.333,9.967-9.624,21.678-18.793,28.141
	c-8.93,6.296-18.519,1.417-24.726-6.226c-16.21-19.957-12.765-49.775-1.186-70.937c4.402-8.05,10.066-15.559,16.833-21.775
	c6.548-6.008,16.631-3.182,23.2,1.358c9.521,6.58,11.756,16.978,12.226,27.942C405.145,299.927,402.603,314.438,396.985,327.36
	C389.627,344.286,404.343,310.435,396.985,327.36z M502.215,280.36c4.674-12.918,15.221-25.953,29.601-28.492
	c6.45-1.136,15.678-0.886,18.734,5.941c2.851,6.369,3.131,14.884,1.371,21.587c-1.345,5.144-6.497,7.362-10.56,10.29
	c-7.498,5.402-15.151,10.857-23.533,14.819c-4.786,2.262-13.919,6.047-17.993,0.557C495.062,298.625,499.896,286.774,502.215,280.36
	C508.838,262.059,495.592,298.661,502.215,280.36z M660.427,458.346c-7.032,19.535-22.403,41.976-43.44,47.954
	c-7.74,2.201-14.755-1.173-16.183-9.397c-1.682-9.67,3.39-19.791,9.585-26.867c12.811-14.623,26.803-28.271,40.897-41.646
	c2.492-2.364,13.155-8.528,14.519-4.048C668.931,434.616,663.989,448.461,660.427,458.346
	C653.805,476.742,667.05,439.95,660.427,458.346z"/>
</svg>
