<svg id="Layer_2" data-name="Layer 2" xmlns="http://www.w3.org/2000/svg" viewBox="0 0 801.7 400.57"><defs><style>.cls-1{fill:#fff;}</style></defs><path class="cls-1" d="M72,475.64a99.11,99.11,0,0,1-27.43-25.13,117.27,117.27,0,0,1-16.93-32.05,146.26,146.26,0,0,1-7.43-35.39,159.42,159.42,0,0,1,1-36.15A130.35,130.35,0,0,1,36.9,301a138.16,138.16,0,0,1,29-36.16,113.42,113.42,0,0,1,37.18-22.05,77.7,77.7,0,0,1,40.25-3.59,34.22,34.22,0,0,1,17.44,9,54.79,54.79,0,0,1,11.54,16.15,85.06,85.06,0,0,1,6.41,19.23,109.45,109.45,0,0,1,2.3,18.46,54.65,54.65,0,0,1-1,13.85q-1.29,5.39-3.85,4.87a82,82,0,0,0-28.2-1.28A99.19,99.19,0,0,0,121,326.67a84.4,84.4,0,0,0-22.31,13.84,60.83,60.83,0,0,0-14.87,18.72q-8.22,16.92-8.46,31t5.89,23.33q6.16,9.23,18.21,12.56t28.46-.77a94.55,94.55,0,0,0,40.25-22.05,174.56,174.56,0,0,0,32.31-39.74A302.68,302.68,0,0,0,225.1,311.8a453.29,453.29,0,0,0,17.18-58.47,492.63,492.63,0,0,0,9.48-59.22,469.2,469.2,0,0,0,2.31-54.36,268,268,0,0,0-63.84,8.2,265.33,265.33,0,0,0-52.82,19.49,204.83,204.83,0,0,0-40.26,26.15Q80.23,208,71.51,222.31q-3.08,5.13-10,3.33t-14.62-8.46a88.89,88.89,0,0,1-14.61-16.67A72.47,72.47,0,0,1,22,178.72a57.08,57.08,0,0,1-1.53-24.1q1.79-12.31,12.05-23.08,9.74-10.25,29-16.92a240.12,240.12,0,0,1,44.36-10.26Q131,100.79,160,99.24t58.72-1.8q29.73-.25,58.2.26t52.05.51q9.74,0,12.31,6.41a20.2,20.2,0,0,1,.25,13.85,33.41,33.41,0,0,1-7.94,13.33q-5.65,5.89-11.8,5.38V157.7q0,14.36-.77,34.1t-3.07,43.84q-2.31,24.12-6.67,49.49a480.62,480.62,0,0,1-11.8,51.28,311,311,0,0,1-19,49.74,249.7,249.7,0,0,1-27.18,44.1,155.93,155.93,0,0,1-37.18,34.62,190.31,190.31,0,0,1-34.61,17.95,143,143,0,0,1-36.67,9.23,118.64,118.64,0,0,1-37.18-1.8A105.43,105.43,0,0,1,72,475.64Z" transform="translate(-19.65 -97.36)"/><path class="cls-1" d="M813.69,184.87a45.63,45.63,0,0,0-20.77-6.16,70.75,70.75,0,0,0-22.56,2q-10.77,2.84-12.82,8Q755,199,750.87,213.07t-9.23,29.74q-5.13,15.66-11,31t-11.28,27.69a158.68,158.68,0,0,1-10,19.74c-3.07,5-5.64,7.44-7.69,7.44q-2.58,0-2-9a199.83,199.83,0,0,1,2.82-22.31q2.31-13.33,5.9-29.74t7.18-31.29q3.57-14.86,6.4-26.66t3.85-16.41q1.54-7.19-6.41-12.57a44.26,44.26,0,0,0-19-6.92,62.32,62.32,0,0,0-21.8.77q-10.77,2.31-15.38,10.51-5.65,9.75-10,29.49-3.21,14.5-5.43,30.67a240.12,240.12,0,0,1-12.52,28.94,215.33,215.33,0,0,1-17.69,29,114.32,114.32,0,0,1-18.46,20.26c-6.15,5.12-11.46,7.87-15.9,8.2a13.1,13.1,0,0,1-10.25-3.59A36,36,0,0,1,565,317.55a52.68,52.68,0,0,1-4.87-13.85,69.27,69.27,0,0,1-1.54-14.1q14.86,9.75,27.95,6.15a50.3,50.3,0,0,0,23.07-13.84,80,80,0,0,0,16.16-24.62q6.15-14.34,7.69-26.15Q636,206,624.21,190.88a50.34,50.34,0,0,0-30.26-19q-18.45-3.84-39.23,4.36T519.6,205.5a162.33,162.33,0,0,0-15.9,30.77,155.36,155.36,0,0,0-7.46,24.89,60.2,60.2,0,0,1-7.67,11.77A23.89,23.89,0,0,1,477,280.88a161.48,161.48,0,0,0,3.85-44.61q-1.29-21.54-10-38-9.75-18.47-30.26-25.9a80,80,0,0,0-42.56-3.33,86,86,0,0,0-40.26,19.49Q339.59,204,334.47,231.14q-7.7,14.88-11.54,36.92a143.85,143.85,0,0,0-1,43.59,97.26,97.26,0,0,0,13.59,39Q346.27,368,367.8,373.7A66.91,66.91,0,0,0,396,375.75,71,71,0,0,0,420.88,367a89.65,89.65,0,0,0,21-16.92,149.84,149.84,0,0,0,17.18-22.56,66.91,66.91,0,0,0,27.7-17.18c2.24-2.29,4.38-4.64,6.43-7,.07,1.06.14,2.12.23,3.17a83.3,83.3,0,0,0,8.72,31.28q7.69,15.92,20,24.11a61,61,0,0,0,26.15,10,72.28,72.28,0,0,0,28.21-2.06,77.3,77.3,0,0,0,26.15-12.56A127.86,127.86,0,0,0,625,337a174,174,0,0,0,17.69-24.88l.81-1.4a155.93,155.93,0,0,0,3.29,30.77Q649.34,354.36,657,361a41.08,41.08,0,0,0,16.42,9,39.85,39.85,0,0,0,16.66,1q7.95-1.29,12-4.36A83.36,83.36,0,0,0,716,352.55a145.19,145.19,0,0,0,10.51-15.38q4.35-7.43,7.18-13.33t4.36-9c-.61,2.84-1.23,5.6-1.86,8.31-4.12,17.11-15.13,56.41-33.38,75.91-32.94,35.2-88.54,31.36-153,10.83-56.14-17.88-173.52-33.59-232-21.22C245.46,404,256.35,497.87,290.28,497.92c6.82,0,28.14-24.89,39.49-30.69,16.14-8.24,72.44-48.41,209.2-7.79,101.21,30.07,159.51,43.45,196.94,13.74a51.06,51.06,0,0,0,10.86-10.37c.4-.5.79-1,1.19-1.54,7.81-9.46,14.59-21.51,20.63-36.5,0,0,0-.08,0-.12q5.68-13.11,10.7-28.51,6.93-21.28,13.08-44.87c3.94-14.6,12.82-56.92,12.82-56.92q5.12-25.12,9-49.23t6.92-44.1Q822.67,190.25,813.69,184.87ZM566,246.52a103.89,103.89,0,0,1,10-18.46,61.3,61.3,0,0,1,12-13.33q6.41-5.11,11.53-6.15,4.62-.51,2.31,9.23a90.1,90.1,0,0,1-8.46,21.28,91.39,91.39,0,0,1-15.13,20.77q-9,9.22-17.69,7.18A70,70,0,0,1,566,246.52ZM433.19,257a146,146,0,0,1-7.44,25.89q-11.28,5.15-12.82,17.95a25.62,25.62,0,0,0,0,10.26,86.8,86.8,0,0,1-12.05,16.92q-5.91,6.17-10.51,4.62-8.22-2.56-10-13.08t1.28-23.85a111.31,111.31,0,0,1,10.25-26.92A87.43,87.43,0,0,1,408.83,246c3.08-2.39,4.78-4.87,5.13-7.43a11.76,11.76,0,0,0-1-6.93,10.32,10.32,0,0,0-4.36-4.61,11.23,11.23,0,0,0-5.38-1.54q7.17-5.64,16.92-3.85t13.33,14.62Q435.5,244.48,433.19,257Z" transform="translate(-19.65 -97.36)"/></svg>